<svg height="512pt" viewBox="-17 0 512 512" width="512pt" xmlns="http://www.w3.org/2000/svg"><path d="m346.148438 15c54.855468 0 99.484374 44.628906 99.484374 99.484375 0 4.140625 3.359376 7.5 7.5 7.5 4.144532 0 7.5-3.359375 7.5-7.5 0-63.128906-51.355468-114.484375-114.484374-114.484375-4.140626 0-7.5 3.355469-7.5 7.5s3.359374 7.5 7.5 7.5zm0 0"/><path d="m346.148438 49.304688c35.941406 0 65.179687 29.238281 65.179687 65.179687 0 4.144531 3.355469 7.5 7.5 7.5s7.5-3.355469 7.5-7.5c0-44.210937-35.96875-80.179687-80.179687-80.179687-4.140626 0-7.5 3.359374-7.5 7.5 0 4.144531 3.359374 7.5 7.5 7.5zm0 0"/><path d="m346.148438 84.765625c16.390624 0 29.722656 13.332031 29.722656 29.71875 0 4.144531 3.355468 7.5 7.5 7.5 4.140625 0 7.5-3.355469 7.5-7.5 0-24.660156-20.0625-44.71875-44.722656-44.71875-4.140626 0-7.5 3.355469-7.5 7.5 0 4.140625 3.359374 7.5 7.5 7.5zm0 0"/><path d="m434.914062 275.144531c3.652344 2.429688 7.78125 3.617188 11.871094 3.613281 5.816406 0 11.558594-2.390624 15.765625-6.996093l10.964844-12.007813c4.210937-4.613281 6.195313-10.816406 5.433594-17.019531-.757813-6.203125-4.179688-11.746094-9.378907-15.207031l-85.59375-56.9375c-3.449218-2.292969-8.105468-1.359375-10.398437 2.089844-2.292969 3.449218-1.359375 8.101562 2.089844 10.398437l85.59375 56.9375c2.125 1.414063 2.667969 3.453125 2.800781 4.539063.132812 1.089843.101562 3.195312-1.625 5.082031l-10.960938 12.007812c-2.140624 2.34375-5.609374 2.769531-8.253906 1.011719l-199.511718-132.71875c-2.515626-1.671875-5.792969-1.671875-8.308594 0l-199.515625 132.71875c-2.640625 1.753906-6.109375 1.332031-8.25-1.011719l-10.964844-12.007812c-1.722656-1.886719-1.757813-3.992188-1.625-5.082031.132813-1.085938.675781-3.125 2.800781-4.539063l221.707032-147.480469 107.121093 71.257813c3.449219 2.296875 8.105469 1.359375 10.398438-2.089844 2.296875-3.449219 1.359375-8.101563-2.089844-10.398437l-111.273437-74.019532c-2.515626-1.675781-5.792969-1.675781-8.308594 0l-66.835938 44.457032v-9.277344h1.730469c5.316406 0 9.644531-4.324219 9.644531-9.644532v-21.726562c0-5.316406-4.328125-9.644531-9.644531-9.644531h-75.761719c-5.316406 0-9.644531 4.328125-9.644531 9.644531v21.726562c0 5.320313 4.328125 9.648438 9.644531 9.648438h1.730469v57.371094l-86.722656 57.6875c-5.203125 3.460937-8.625 9.003906-9.382813 15.207031-.761718 6.203125 1.21875 12.40625 5.433594 17.019531l10.964844 12.007813c7.167968 7.847656 18.789062 9.269531 27.636718 3.382812l19.152344-12.738281v78.519531c0 4.144531 3.355469 7.5 7.5 7.5 4.140625 0 7.5-3.355469 7.5-7.5v-88.496093l161.207032-107.238282 161.207031 107.234375v209.132813h-322.414063v-85.550782c0-4.144531-3.359375-7.5-7.5-7.5-4.144531 0-7.5 3.355469-7.5 7.5v85.550782h-30.933594c-8.929687 0-16.191406 7.265625-16.191406 16.191406v18.058594c0 8.929687 7.261719 16.191406 16.191406 16.191406h414.285157c8.925781 0 16.1875-7.261719 16.1875-16.191406v-18.058594c0-8.929688-7.261719-16.191406-16.1875-16.191406h-30.9375v-199.152344zm-281.347656-143.421875-42.300781 28.136719v-47.394531h42.300781zm-53.675781-45.273437h65.050781v11.015625h-65.050781zm346.808594 390.109375c.652343 0 1.1875.535156 1.1875 1.191406v18.058594c0 .65625-.535157 1.191406-1.1875 1.191406h-414.285157c-.660156 0-1.191406-.535156-1.191406-1.191406v-18.058594c0-.65625.53125-1.191406 1.191406-1.191406zm0 0"/><path d="m239.554688 380.890625c27.75 0 50.328124-22.578125 50.328124-50.328125s-22.578124-50.328125-50.328124-50.328125-50.328126 22.578125-50.328126 50.328125 22.578126 50.328125 50.328126 50.328125zm0-85.65625c19.480468 0 35.328124 15.851563 35.328124 35.328125 0 19.480469-15.847656 35.328125-35.328124 35.328125-19.480469 0-35.328126-15.847656-35.328126-35.328125 0-19.476562 15.847657-35.328125 35.328126-35.328125zm0 0"/><path d="m157.40625 307.972656c-7.679688 0-13.921875 6.246094-13.921875 13.921875v17.339844c0 7.675781 6.242187 13.921875 13.921875 13.921875h6.332031c1.546875 5.207031 3.640625 10.257812 6.230469 15.042969l-4.476562 4.480469c-5.429688 5.425781-5.429688 14.257812 0 19.6875l12.261718 12.261718c2.628906 2.628906 6.125 4.074219 9.84375 4.074219s7.214844-1.445313 9.84375-4.074219l4.480469-4.480468c4.78125 2.589843 9.835937 4.6875 15.042969 6.234374v6.332032c0 7.675781 6.242187 13.921875 13.917968 13.921875h17.34375c7.675782 0 13.917969-6.246094 13.917969-13.921875v-6.332032c5.207031-1.550781 10.261719-3.644531 15.042969-6.234374l4.480469 4.480468c2.628906 2.628906 6.125 4.078125 9.84375 4.078125 3.722656 0 7.214843-1.449219 9.847656-4.078125l12.261719-12.261718c5.425781-5.429688 5.425781-14.261719 0-19.6875l-4.480469-4.480469c2.59375-4.785157 4.6875-9.835938 6.234375-15.042969h6.332031c7.675781 0 13.921875-6.246094 13.921875-13.921875v-17.339844c0-7.675781-6.246094-13.921875-13.921875-13.921875h-6.332031c-1.550781-5.207031-3.644531-10.257812-6.234375-15.042968l4.480469-4.480469c2.628906-2.628907 4.078125-6.125 4.078125-9.84375s-1.449219-7.214844-4.078125-9.84375l-12.261719-12.261719c-2.632813-2.628906-6.125-4.078125-9.847656-4.078125-3.71875 0-7.214844 1.449219-9.84375 4.078125l-4.476563 4.480469c-4.785156-2.59375-9.839844-4.6875-15.042968-6.234375v-6.332032c0-7.675781-6.246094-13.921874-13.921876-13.921874h-17.34375c-7.675781 0-13.917968 6.246093-13.917968 13.921874v6.332032c-5.207032 1.546875-10.257813 3.640625-15.042969 6.234375l-4.480469-4.480469c-2.628906-2.628906-6.125-4.078125-9.84375-4.078125s-7.214844 1.449219-9.84375 4.078125l-12.261718 12.261719c-2.628907 2.628906-4.078126 6.125-4.078126 9.84375s1.449219 7.214843 4.078126 9.84375l4.476562 4.480469c-2.589844 4.78125-4.683594 9.835937-6.230469 15.042968zm20.515625 4.929688c1.332031-4.660156 3.203125-9.175782 5.5625-13.417969 2.996094-5.394531 2.035156-12.21875-2.332031-16.585937l-4.292969-4.292969 10.738281-10.738281 4.289063 4.292968c4.371093 4.371094 11.195312 5.328125 16.589843 2.332032 4.246094-2.359376 8.757813-4.230469 13.417969-5.5625 5.929688-1.691407 10.066407-7.195313 10.066407-13.375v-6.0625h15.183593v6.0625c0 6.179687 4.144531 11.683593 10.070313 13.375 4.660156 1.332031 9.171875 3.203124 13.417968 5.558593 5.394532 3 12.21875 2.042969 16.589844-2.328125l4.289063-4.292968 10.738281 10.738281-4.292969 4.292969c-4.371093 4.371093-5.328125 11.191406-2.332031 16.585937 2.359375 4.246094 4.230469 8.757813 5.5625 13.417969 1.691406 5.929687 7.195312 10.070312 13.375 10.070312h6.0625v15.183594h-6.0625c-6.179688 0-11.683594 4.140625-13.375 10.066406-1.332031 4.660156-3.203125 9.175782-5.558594 13.417969-3 5.394531-2.042968 12.21875 2.328125 16.589844l4.292969 4.292969-10.738281 10.734374-4.289063-4.289062c-4.371094-4.375-11.191406-5.332031-16.589844-2.332031-4.242187 2.355469-8.757812 4.226562-13.417968 5.558593-5.925782 1.691407-10.070313 7.191407-10.070313 13.375v6.066407h-15.183593v-6.066407c0-6.183593-4.140626-11.683593-10.066407-13.375-4.660156-1.332031-9.175781-3.203124-13.417969-5.558593-5.394531-3-12.21875-2.042969-16.589843 2.328125l-4.289063 4.292968-10.738281-10.738281 4.292969-4.289062c4.367187-4.371094 5.328125-11.191407 2.332031-16.589844-2.359375-4.242187-4.230469-8.757813-5.5625-13.417969-1.695313-5.925781-7.195313-10.066406-13.375-10.066406h-6.0625v-15.183594h6.0625c6.179687 0 11.679687-4.140625 13.375-10.070312zm0 0"/></svg>